<svg xmlns="http://www.w3.org/2000/svg" class="_8pSp-" viewBox="0 0 559 825" height="49" width="34" fill="#fc8019"><path fill-rule="evenodd" clip-rule="evenodd" d="M542.92 388.542c3.885-22.016-.565-38.944-12.039-47.782-17.26-13.294-43.183-20.524-104.927-20.524-45.683 0-94.729.05-115.686.039-1.946-.381-8.983-2.671-9.248-11.163l-.286-134.823c-.007-8.51 6.797-15.432 15.209-15.45 8.426-.014 15.261 6.884 15.268 15.387 0 0 .21 73.188.23 99.198 0 2.512 1.451 8.376 7.108 9.904 36.881 9.939 223.316 2.671 220.418-31.524C543.147 109.96 424.476 0 280.394 0c-45.373 0-88.329 10.916-126.368 30.275C62.993 77.595-1.659 173.107.032 283.43c1.2 78.192 52.188 217.175 83.402 237.804 14.386 9.515 33.331 5.994 118.05 5.994 38.419 0 74.195.127 91.776.208 1.827.346 11.411 2.565 11.411 11.471l.223 102.486c.021 8.514-6.79 15.433-15.216 15.436-8.412.014-15.244-6.876-15.258-15.383 0 0 .75-41.124.75-56.461 0-3.55.254-9.646-9.992-14.258-33.746-15.174-143.329-6.015-149.477 10.73-2.354 6.442 9.898 31.344 28.758 63.274 25.643 40.893 67.43 102.514 101.142 147.894 15.446 20.792 23.169 31.188 34.866 31.476 11.698.288 20.047-9.865 36.746-30.173 65.799-80.019 199.339-256.265 225.707-405.386Z" fill="url('#paint0_linear_19447_66107')"/><defs><linearGradient id="paint0_linear_19447_66107" x1="445.629" y1="63.863" x2="160.773" y2="537.598" gradientUnits="userSpaceOnUse"><stop stop-color="#FF993A"/><stop offset="1" stop-color="#F15700"/></linearGradient></defs></svg>